# Blender 4.4.0
# www.blender.org
mtllib fbemojisphere.mtl
o Sphere
v -0.000000 0.753934 0.000000
v -0.000000 0.533112 0.533112
v -0.000000 -0.533113 0.533112
v 0.125183 0.696545 0.259946
v 0.231308 0.533112 0.480318
v 0.302219 0.288518 0.627565
v 0.327120 -0.000000 0.679272
v 0.302219 -0.288518 0.627565
v 0.231308 -0.533113 0.480318
v 0.125183 -0.696545 0.259946
v 0.225573 0.696545 0.179888
v 0.416804 0.533112 0.332390
v 0.544580 0.288518 0.434289
v 0.589450 -0.000000 0.470071
v 0.544580 -0.288518 0.434289
v 0.416804 -0.533113 0.332390
v 0.225573 -0.696545 0.179888
v 0.281284 0.696545 0.064201
v 0.519746 0.533112 0.118629
v 0.679081 0.288518 0.154996
v 0.735032 -0.000000 0.167766
v 0.679081 -0.288518 0.154996
v 0.519746 -0.533113 0.118629
v 0.281284 -0.696545 0.064201
v 0.281285 0.696545 -0.064201
v 0.519746 0.533112 -0.118628
v 0.679081 0.288518 -0.154996
v 0.735032 -0.000000 -0.167766
v 0.679081 -0.288518 -0.154996
v 0.519746 -0.533113 -0.118628
v 0.281285 -0.696545 -0.064201
v 0.225573 0.696545 -0.179888
v 0.416804 0.533112 -0.332390
v 0.544581 0.288518 -0.434288
v 0.589450 -0.000000 -0.470070
v 0.544581 -0.288518 -0.434288
v 0.416804 -0.533113 -0.332390
v 0.225573 -0.696545 -0.179888
v 0.125183 0.696545 -0.259946
v 0.231309 0.533112 -0.480318
v 0.302219 0.288518 -0.627565
v 0.327120 -0.000000 -0.679271
v 0.302219 -0.288518 -0.627565
v 0.231309 -0.533113 -0.480318
v 0.125183 -0.696545 -0.259946
v 0.000000 0.696545 -0.288518
v 0.000000 0.533112 -0.533112
v 0.000000 0.288518 -0.696545
v 0.000000 -0.000000 -0.753935
v 0.000000 -0.288518 -0.696545
v 0.000000 -0.533113 -0.533112
v 0.000000 -0.696545 -0.288518
v -0.125183 0.696545 -0.259946
v -0.231309 0.533112 -0.480318
v -0.302219 0.288518 -0.627565
v -0.327120 -0.000000 -0.679271
v -0.302219 -0.288518 -0.627565
v -0.231309 -0.533113 -0.480318
v -0.125183 -0.696545 -0.259946
v -0.225573 0.696545 -0.179888
v -0.416804 0.533112 -0.332390
v -0.544581 0.288518 -0.434289
v -0.589450 -0.000000 -0.470070
v -0.544581 -0.288518 -0.434289
v -0.416804 -0.533113 -0.332390
v -0.225573 -0.696545 -0.179888
v -0.281285 0.696545 -0.064201
v -0.519746 0.533112 -0.118629
v -0.679081 0.288518 -0.154996
v -0.735032 -0.000000 -0.167766
v -0.679081 -0.288518 -0.154996
v -0.519746 -0.533113 -0.118629
v -0.281285 -0.696545 -0.064201
v -0.281285 0.696545 0.064201
v -0.519746 0.533112 0.118629
v -0.679081 0.288518 0.154996
v -0.735032 -0.000000 0.167766
v -0.679081 -0.288518 0.154996
v -0.519746 -0.533113 0.118629
v -0.281285 -0.696545 0.064201
v -0.225573 0.696545 0.179888
v -0.416804 0.533112 0.332390
v -0.544581 0.288518 0.434289
v -0.589450 -0.000000 0.470070
v -0.544581 -0.288518 0.434289
v -0.416804 -0.533113 0.332390
v -0.225573 -0.696545 0.179888
v -0.125183 0.696545 0.259946
v -0.231309 0.533112 0.480318
v -0.302219 0.288518 0.627565
v -0.327120 -0.000000 0.679271
v -0.302219 -0.288518 0.627565
v -0.231309 -0.533113 0.480318
v -0.125183 -0.696545 0.259946
v -0.000000 -0.753935 0.000000
v -0.000000 0.696545 0.288518
v -0.000000 0.288518 0.696545
v -0.000000 -0.000000 0.753935
v -0.000000 -0.288518 0.696545
v -0.000000 -0.696545 0.288518
vn -0.0000 1.0000 -0.0000
vn -0.0000 0.6935 0.7205
vn -0.0000 -0.6935 0.7205
vn 0.1761 0.9139 0.3657
vn 0.3126 0.6935 0.6491
vn 0.4025 0.3732 0.8359
vn 0.4339 -0.0000 0.9010
vn 0.4025 -0.3732 0.8359
vn 0.3126 -0.6935 0.6491
vn 0.1761 -0.9139 0.3657
vn 0.3174 0.9139 0.2531
vn 0.5633 0.6935 0.4492
vn 0.7253 0.3732 0.5784
vn 0.7818 -0.0000 0.6235
vn 0.7253 -0.3732 0.5784
vn 0.5633 -0.6935 0.4492
vn 0.3174 -0.9139 0.2531
vn 0.3958 0.9139 0.0903
vn 0.7024 0.6935 0.1603
vn 0.9045 0.3732 0.2064
vn 0.9749 -0.0000 0.2225
vn 0.9045 -0.3732 0.2064
vn 0.7024 -0.6935 0.1603
vn 0.3958 -0.9139 0.0903
vn 0.3958 0.9139 -0.0903
vn 0.7024 0.6935 -0.1603
vn 0.9045 0.3732 -0.2064
vn 0.9749 -0.0000 -0.2225
vn 0.9045 -0.3732 -0.2064
vn 0.7024 -0.6935 -0.1603
vn 0.3958 -0.9139 -0.0903
vn 0.3174 0.9139 -0.2531
vn 0.5633 0.6935 -0.4492
vn 0.7253 0.3732 -0.5784
vn 0.7818 -0.0000 -0.6235
vn 0.7253 -0.3732 -0.5784
vn 0.5633 -0.6935 -0.4492
vn 0.3174 -0.9139 -0.2531
vn 0.1761 0.9139 -0.3657
vn 0.3126 0.6935 -0.6491
vn 0.4025 0.3732 -0.8359
vn 0.4339 -0.0000 -0.9010
vn 0.4025 -0.3732 -0.8359
vn 0.3126 -0.6935 -0.6491
vn 0.1761 -0.9139 -0.3657
vn -0.0000 0.9139 -0.4059
vn -0.0000 0.6935 -0.7205
vn -0.0000 0.3732 -0.9277
vn -0.0000 -0.0000 -1.0000
vn -0.0000 -0.3732 -0.9277
vn -0.0000 -0.6935 -0.7205
vn -0.0000 -0.9139 -0.4059
vn -0.1761 0.9139 -0.3657
vn -0.3126 0.6935 -0.6491
vn -0.4025 0.3732 -0.8359
vn -0.4339 -0.0000 -0.9010
vn -0.4025 -0.3732 -0.8359
vn -0.3126 -0.6935 -0.6491
vn -0.1761 -0.9139 -0.3657
vn -0.3174 0.9139 -0.2531
vn -0.5633 0.6935 -0.4492
vn -0.7253 0.3732 -0.5784
vn -0.7818 -0.0000 -0.6235
vn -0.7253 -0.3732 -0.5784
vn -0.5633 -0.6935 -0.4492
vn -0.3174 -0.9139 -0.2531
vn -0.3958 0.9139 -0.0903
vn -0.7024 0.6935 -0.1603
vn -0.9045 0.3732 -0.2064
vn -0.9749 -0.0000 -0.2225
vn -0.9045 -0.3732 -0.2064
vn -0.7024 -0.6935 -0.1603
vn -0.3958 -0.9139 -0.0903
vn -0.3958 0.9139 0.0903
vn -0.7024 0.6935 0.1603
vn -0.9045 0.3732 0.2064
vn -0.9749 -0.0000 0.2225
vn -0.9045 -0.3732 0.2064
vn -0.7024 -0.6935 0.1603
vn -0.3958 -0.9139 0.0903
vn -0.3174 0.9139 0.2531
vn -0.5633 0.6935 0.4492
vn -0.7253 0.3732 0.5784
vn -0.7818 -0.0000 0.6235
vn -0.7253 -0.3732 0.5784
vn -0.5633 -0.6935 0.4492
vn -0.3174 -0.9139 0.2531
vn -0.1761 0.9139 0.3657
vn -0.3126 0.6935 0.6491
vn -0.4025 0.3732 0.8359
vn -0.4339 -0.0000 0.9010
vn -0.4025 -0.3732 0.8359
vn -0.3126 -0.6935 0.6491
vn -0.1761 -0.9139 0.3657
vn -0.0000 -1.0000 -0.0000
vn -0.0000 0.9139 0.4059
vn -0.0000 0.3732 0.9277
vn -0.0000 -0.0000 1.0000
vn -0.0000 -0.3732 0.9277
vn -0.0000 -0.9139 0.4059
vt 0.424198 0.229416
vt 0.424198 0.297062
vt 0.491844 0.297062
vt 0.491844 0.229416
vt 0.288906 0.229416
vt 0.288906 0.297062
vt 0.356552 0.297062
vt 0.356552 0.229416
vt 0.153614 0.229416
vt 0.153614 0.297062
vt 0.221260 0.297062
vt 0.221260 0.229416
vt 0.018322 0.263239
vt 0.085968 0.297062
vt 0.085968 0.229416
vt 0.559490 0.263239
vt 0.288906 0.161770
vt 0.356552 0.161770
vt 0.153614 0.161770
vt 0.221260 0.161770
vt 0.018322 0.195593
vt 0.085968 0.161770
vt 0.491844 0.161770
vt 0.559490 0.195593
vt 0.424198 0.161770
vt 0.491844 0.094124
vt 0.559490 0.127947
vt 0.356552 0.094124
vt 0.424198 0.094124
vt 0.221260 0.094124
vt 0.288906 0.094124
vt 0.085968 0.094124
vt 0.153614 0.094124
vt 0.018322 0.127947
vt 0.221260 0.026478
vt 0.288906 0.026478
vt 0.085968 0.026478
vt 0.153614 0.026478
vt 0.424198 0.026478
vt 0.491844 0.026478
vt 0.356552 0.026478
vt 0.018322 0.060301
vt 0.559490 0.060301
vt 0.424198 0.905876
vt 0.424198 0.973522
vt 0.491844 0.973522
vt 0.491844 0.905876
vt 0.288906 0.905876
vt 0.288906 0.973522
vt 0.356552 0.973522
vt 0.356552 0.905876
vt 0.153614 0.905876
vt 0.153614 0.973522
vt 0.221260 0.973522
vt 0.221260 0.905876
vt 0.018322 0.939699
vt 0.085968 0.973522
vt 0.085968 0.905876
vt 0.559490 0.939699
vt 0.153614 0.838230
vt 0.221260 0.838230
vt 0.018322 0.872053
vt 0.085968 0.838230
vt 0.491844 0.838230
vt 0.559490 0.872053
vt 0.356552 0.838230
vt 0.424198 0.838230
vt 0.288906 0.838230
vt 0.491844 0.770584
vt 0.559490 0.804407
vt 0.356552 0.770584
vt 0.424198 0.770584
vt 0.221260 0.770584
vt 0.288906 0.770584
vt 0.085968 0.770584
vt 0.153614 0.770584
vt 0.018322 0.804407
vt 0.085968 0.702938
vt 0.153614 0.702938
vt 0.424198 0.702938
vt 0.491844 0.702938
vt 0.288906 0.702938
vt 0.356552 0.702938
vt 0.221260 0.702938
vt 0.018322 0.736761
vt 0.559490 0.736761
vt 0.424198 0.635292
vt 0.491844 0.635292
vt 0.288906 0.635292
vt 0.356552 0.635292
vt 0.153614 0.635292
vt 0.221260 0.635292
vt 0.018322 0.669115
vt 0.085968 0.635292
vt 0.559490 0.669115
vt 0.018322 0.601469
vt 0.085968 0.567646
vt 0.491844 0.567646
vt 0.559490 0.601469
vt 0.356552 0.567646
vt 0.424198 0.567646
vt 0.221260 0.567646
vt 0.288906 0.567646
vt 0.153614 0.567646
vt 0.356552 0.500000
vt 0.424198 0.500000
vt 0.221260 0.500000
vt 0.288906 0.500000
vt 0.085968 0.500000
vt 0.153614 0.500000
vt 0.491844 0.500000
vt 0.018322 0.533823
vt 0.559490 0.533823
vt 0.424198 0.432354
vt 0.491844 0.432354
vt 0.288906 0.432354
vt 0.356552 0.432354
vt 0.153614 0.432354
vt 0.221260 0.432354
vt 0.018322 0.466177
vt 0.085968 0.432354
vt 0.559490 0.466177
vt 0.288906 0.364708
vt 0.356552 0.364708
vt 0.153614 0.364708
vt 0.221260 0.364708
vt 0.018322 0.398531
vt 0.085968 0.364708
vt 0.491844 0.364708
vt 0.559490 0.398531
vt 0.424198 0.364708
vt 0.559490 0.330885
vt 0.018322 0.330885
s 1
f 9/1/9 3/2/3 100/3/100 10/4/10
f 7/5/7 98/6/98 99/7/99 8/8/8
f 5/9/5 2/10/2 97/11/97 6/12/6
f 1/13/1 96/14/96 4/15/4
f 10/4/10 100/3/100 95/16/95
f 8/8/8 99/7/99 3/2/3 9/1/9
f 6/12/6 97/11/97 98/6/98 7/5/7
f 4/15/4 96/14/96 2/10/2 5/9/5
f 14/17/14 7/5/7 8/8/8 15/18/15
f 12/19/12 5/9/5 6/12/6 13/20/13
f 1/21/1 4/15/4 11/22/11
f 17/23/17 10/4/10 95/24/95
f 15/18/15 8/8/8 9/1/9 16/25/16
f 13/20/13 6/12/6 7/5/7 14/17/14
f 11/22/11 4/15/4 5/9/5 12/19/12
f 16/25/16 9/1/9 10/4/10 17/23/17
f 24/26/24 17/23/17 95/27/95
f 22/28/22 15/18/15 16/25/16 23/29/23
f 20/30/20 13/20/13 14/17/14 21/31/21
f 18/32/18 11/22/11 12/19/12 19/33/19
f 23/29/23 16/25/16 17/23/17 24/26/24
f 21/31/21 14/17/14 15/18/15 22/28/22
f 19/33/19 12/19/12 13/20/13 20/30/20
f 1/34/1 11/22/11 18/32/18
f 27/35/27 20/30/20 21/31/21 28/36/28
f 25/37/25 18/32/18 19/33/19 26/38/26
f 30/39/30 23/29/23 24/26/24 31/40/31
f 28/36/28 21/31/21 22/28/22 29/41/29
f 26/38/26 19/33/19 20/30/20 27/35/27
f 1/42/1 18/32/18 25/37/25
f 31/40/31 24/26/24 95/43/95
f 29/41/29 22/28/22 23/29/23 30/39/30
f 37/44/37 30/45/30 31/46/31 38/47/38
f 35/48/35 28/49/28 29/50/29 36/51/36
f 33/52/33 26/53/26 27/54/27 34/55/34
f 1/56/1 25/57/25 32/58/32
f 38/47/38 31/46/31 95/59/95
f 36/51/36 29/50/29 30/45/30 37/44/37
f 34/55/34 27/54/27 28/49/28 35/48/35
f 32/58/32 25/57/25 26/53/26 33/52/33
f 40/60/40 33/52/33 34/55/34 41/61/41
f 1/62/1 32/58/32 39/63/39
f 45/64/45 38/47/38 95/65/95
f 43/66/43 36/51/36 37/44/37 44/67/44
f 41/61/41 34/55/34 35/48/35 42/68/42
f 39/63/39 32/58/32 33/52/33 40/60/40
f 44/67/44 37/44/37 38/47/38 45/64/45
f 42/68/42 35/48/35 36/51/36 43/66/43
f 52/69/52 45/64/45 95/70/95
f 50/71/50 43/66/43 44/67/44 51/72/51
f 48/73/48 41/61/41 42/68/42 49/74/49
f 46/75/46 39/63/39 40/60/40 47/76/47
f 51/72/51 44/67/44 45/64/45 52/69/52
f 49/74/49 42/68/42 43/66/43 50/71/50
f 47/76/47 40/60/40 41/61/41 48/73/48
f 1/77/1 39/63/39 46/75/46
f 53/78/53 46/75/46 47/76/47 54/79/54
f 58/80/58 51/72/51 52/69/52 59/81/59
f 56/82/56 49/74/49 50/71/50 57/83/57
f 54/79/54 47/76/47 48/73/48 55/84/55
f 1/85/1 46/75/46 53/78/53
f 59/81/59 52/69/52 95/86/95
f 57/83/57 50/71/50 51/72/51 58/80/58
f 55/84/55 48/73/48 49/74/49 56/82/56
f 65/87/65 58/80/58 59/81/59 66/88/66
f 63/89/63 56/82/56 57/83/57 64/90/64
f 61/91/61 54/79/54 55/84/55 62/92/62
f 1/93/1 53/78/53 60/94/60
f 66/88/66 59/81/59 95/95/95
f 64/90/64 57/83/57 58/80/58 65/87/65
f 62/92/62 55/84/55 56/82/56 63/89/63
f 60/94/60 53/78/53 54/79/54 61/91/61
f 1/96/1 60/94/60 67/97/67
f 73/98/73 66/88/66 95/99/95
f 71/100/71 64/90/64 65/87/65 72/101/72
f 69/102/69 62/92/62 63/89/63 70/103/70
f 67/97/67 60/94/60 61/91/61 68/104/68
f 72/101/72 65/87/65 66/88/66 73/98/73
f 70/103/70 63/89/63 64/90/64 71/100/71
f 68/104/68 61/91/61 62/92/62 69/102/69
f 78/105/78 71/100/71 72/101/72 79/106/79
f 76/107/76 69/102/69 70/103/70 77/108/77
f 74/109/74 67/97/67 68/104/68 75/110/75
f 79/106/79 72/101/72 73/98/73 80/111/80
f 77/108/77 70/103/70 71/100/71 78/105/78
f 75/110/75 68/104/68 69/102/69 76/107/76
f 1/112/1 67/97/67 74/109/74
f 80/111/80 73/98/73 95/113/95
f 86/114/86 79/106/79 80/111/80 87/115/87
f 84/116/84 77/108/77 78/105/78 85/117/85
f 82/118/82 75/110/75 76/107/76 83/119/83
f 1/120/1 74/109/74 81/121/81
f 87/115/87 80/111/80 95/122/95
f 85/117/85 78/105/78 79/106/79 86/114/86
f 83/119/83 76/107/76 77/108/77 84/116/84
f 81/121/81 74/109/74 75/110/75 82/118/82
f 91/123/91 84/116/84 85/117/85 92/124/92
f 89/125/89 82/118/82 83/119/83 90/126/90
f 1/127/1 81/121/81 88/128/88
f 94/129/94 87/115/87 95/130/95
f 92/124/92 85/117/85 86/114/86 93/131/93
f 90/126/90 83/119/83 84/116/84 91/123/91
f 88/128/88 81/121/81 82/118/82 89/125/89
f 93/131/93 86/114/86 87/115/87 94/129/94
f 100/3/100 94/129/94 95/132/95
f 99/7/99 92/124/92 93/131/93 3/2/3
f 97/11/97 90/126/90 91/123/91 98/6/98
f 96/14/96 88/128/88 89/125/89 2/10/2
f 3/2/3 93/131/93 94/129/94 100/3/100
f 98/6/98 91/123/91 92/124/92 99/7/99
f 2/10/2 89/125/89 90/126/90 97/11/97
f 1/133/1 88/128/88 96/14/96
