# Blender 4.4.3
# www.blender.org
o CollisionMesh
v -6.533442 -0.801552 2.000176
v -6.533442 1.045293 2.000176
v -6.533442 -0.801552 -4.130422
v -6.533442 1.045293 -4.130422
v -2.039497 -0.801552 2.000176
v -2.039497 1.045293 2.000176
v -2.039497 -0.801552 -4.130422
v -2.039497 1.045293 -4.130422
v -2.558716 1.045293 -6.468496
v -2.558716 -0.801552 -6.468496
v -2.039497 -0.801552 -6.468496
v -2.039497 1.045293 -6.468496
v 1.545550 1.045293 -4.130422
v 1.545550 -0.801552 -4.130422
v 1.545550 -0.801552 -0.104091
v 1.545550 1.045293 -0.104091
v 1.545550 1.045293 -6.468496
v 1.545550 -0.801552 -6.468496
v 1.896261 1.045293 -4.130422
v 1.896261 -0.801552 -4.130422
v 1.896261 -0.801552 0.181674
v 1.896261 1.045293 0.181674
v 1.896261 1.045293 -6.468496
v 1.896261 -0.801552 -6.468496
v 7.001056 1.045293 -4.130422
v 7.001056 -0.801552 -4.130422
v 7.001056 -0.801552 0.181674
v 7.001056 1.045293 0.181674
v 7.001056 1.045293 -6.468496
v 7.001056 -0.801552 -6.468496
v 1.896261 -0.801552 1.061968
v 1.896261 1.045293 1.061968
v 7.001056 -0.801552 4.081294
v 7.001056 1.045293 4.081294
v 1.861299 -0.801552 1.697467
v 1.861299 1.045293 1.697467
v 5.262194 -0.801552 4.994382
v 5.262194 1.045293 4.994382
v 2.552049 -0.801552 -6.468496
v 2.552049 -0.801552 -4.130422
v 2.552049 1.045293 -6.468496
v 2.552049 1.045293 0.181674
v 2.552049 1.045293 -4.130422
v 2.552049 -0.801552 0.181674
v 2.552049 1.045293 1.449845
v 2.552049 -0.801552 1.449845
v 2.486119 1.045293 2.039571
v 2.486119 -0.801552 2.039571
v 2.655128 1.198448 6.524879
v 2.655128 -0.801552 6.524879
v 1.589160 1.198448 2.981239
v 1.589160 -0.801552 2.981239
v -6.547536 1.198448 6.487470
v -6.547536 -0.801552 6.487470
v -6.547341 1.198448 2.943830
v -6.547341 -0.801552 2.943830
v 2.486119 2.049833 2.039571
v 5.262194 2.049833 4.994382
v 1.589160 2.131071 2.981239
v 2.655128 2.131071 6.524879
v -6.547341 2.131071 2.943830
v -6.547536 2.131071 6.487470
v 2.138467 1.104654 2.404552
v 4.251722 1.104654 5.587586
v 2.138467 -0.801552 2.404552
v 4.251722 -0.801552 5.587586
v 2.138467 2.131071 2.404552
v 4.251722 2.131071 5.587586
vn -1.0000 -0.0000 -0.0000
vn -0.0000 1.0000 -0.0000
vn -0.0000 -0.0000 1.0000
vn -0.0000 -1.0000 -0.0000
vn -0.0000 -0.0000 -1.0000
vn -0.5070 -0.0000 -0.8619
vn -0.6317 -0.0000 0.7752
vn 0.5062 -0.0000 0.8624
vn 1.0000 -0.0000 -0.0000
vn -0.9985 -0.0000 -0.0549
vn 0.7288 -0.0000 -0.6847
vn 0.4649 -0.0000 0.8854
vn -0.4803 -0.0000 0.8771
vn -0.7241 -0.0000 -0.6897
vn 0.5063 -0.0000 0.8624
vn -1.0000 -0.0000 -0.0001
vn -0.0041 -0.0000 1.0000
vn 0.0046 -0.0000 -1.0000
vn 0.0762 0.9952 -0.0607
vt 0.375000 0.000000
vt 0.625000 0.000000
vt 0.625000 0.250000
vt 0.375000 0.250000
vt 0.875000 0.500000
vt 0.625000 0.500000
vt 0.375000 0.750000
vt 0.625000 0.750000
vt 0.625000 1.000000
vt 0.375000 1.000000
vt 0.125000 0.500000
vt 0.375000 0.500000
vt 0.125000 0.750000
vt 0.875000 0.750000
vt 0.375000 0.750000
vt 0.625000 0.750000
s 0
f 1/1/1 2/2/1 4/3/1 3/4/1
f 4/5/2 8/6/2 12/6/2 9/5/2
f 12/6/2 8/6/2 13/6/2 17/6/2
f 5/7/3 6/8/3 2/9/3 1/10/3
f 3/11/4 7/12/4 5/7/4 1/13/4
f 8/6/2 4/5/2 2/14/2 6/8/2
f 10/4/5 9/3/5 12/6/5 11/12/5
f 3/4/6 4/3/6 9/3/6 10/4/6
f 5/7/4 7/12/4 14/12/4 15/7/4
f 7/12/4 3/11/4 10/11/4 11/12/4
f 16/8/7 15/7/7 21/7/7 22/8/7
f 17/6/2 13/6/2 19/6/2 23/6/2
f 7/12/4 11/12/4 18/12/4 14/12/4
f 8/6/2 6/8/2 16/8/2 13/6/2
f 11/12/5 12/6/5 17/6/5 18/12/5
f 6/8/8 5/7/8 15/7/8 16/8/8
f 39/12/5 41/6/5 29/6/5 30/12/5
f 40/12/4 39/12/4 30/12/4 26/12/4
f 15/7/4 14/12/4 20/12/4 21/7/4
f 14/12/4 18/12/4 24/12/4 20/12/4
f 18/12/5 17/6/5 23/6/5 24/12/5
f 13/6/2 16/8/2 22/8/2 19/6/2
f 26/12/9 25/6/9 28/8/9 27/7/9
f 25/6/9 26/12/9 30/12/9 29/6/9
f 43/6/2 42/8/2 28/8/2 25/6/2
f 41/6/2 43/6/2 25/6/2 29/6/2
f 27/7/9 28/8/9 34/8/9 33/7/9
f 44/7/4 40/12/4 26/12/4 27/7/4
f 32/8/10 31/7/10 35/7/10 36/8/10
f 22/8/1 21/7/1 31/7/1 32/8/1
f 44/7/4 27/7/4 33/7/4 46/7/4
f 42/8/2 22/8/2 32/8/2 45/8/2
f 38/8/11 47/8/11 57/8/11 58/8/11
f 46/7/4 33/7/4 37/7/4 48/15/4
f 33/7/12 34/8/12 38/8/12 37/7/12
f 45/8/2 32/8/2 36/8/2 47/8/2
f 34/8/2 45/8/2 47/8/2 38/8/2
f 31/7/4 46/7/4 48/15/4 35/7/4
f 36/8/13 35/7/13 48/15/13 47/8/13
f 28/8/2 42/8/2 45/8/2 34/8/2
f 21/7/4 44/7/4 46/7/4 31/7/4
f 21/7/4 20/12/4 40/12/4 44/7/4
f 23/6/2 19/6/2 43/6/2 41/6/2
f 19/6/2 22/8/2 42/8/2 43/6/2
f 20/12/4 24/12/4 39/12/4 40/12/4
f 24/12/5 23/6/5 41/6/5 39/12/5
f 52/15/4 50/7/4 54/7/4 56/15/4
f 63/8/14 65/15/14 52/15/14 51/8/14
f 65/15/4 66/7/4 50/7/4 52/15/4
f 66/7/15 64/8/15 49/8/15 50/7/15
f 55/8/16 56/15/16 54/7/16 53/8/16
f 50/7/17 49/8/17 53/8/17 54/7/17
f 51/8/18 52/15/18 56/15/18 55/8/18
f 55/8/16 53/8/16 62/8/16 61/8/16
f 68/8/2 67/16/2 59/8/2 60/8/2
f 60/8/2 59/8/2 61/8/2 62/8/2
f 64/8/15 38/8/15 58/8/15 68/8/15
f 53/8/17 49/8/17 60/8/17 62/8/17
f 51/8/18 55/8/18 61/8/18 59/8/18
f 63/8/14 51/8/14 59/8/14 67/16/14
f 47/8/14 63/8/14 67/16/14 57/8/14
f 49/8/15 64/8/15 68/8/15 60/8/15
f 58/8/19 57/8/19 67/16/19 68/8/19
f 37/7/15 38/8/15 64/8/15 66/7/15
f 48/15/4 37/7/4 66/7/4 65/15/4
f 47/8/14 48/15/14 65/15/14 63/8/14
