# Blender 4.4.3
# www.blender.org
o Cylinder.006
v -4.000000 -0.000001 -0.304181
v -4.000000 5.000000 -0.304181
v -3.821207 -0.000001 -0.246088
v -3.821207 5.000000 -0.246088
v -3.710706 -0.000001 -0.093997
v -3.710706 5.000000 -0.093997
v -3.710706 -0.000001 0.093997
v -3.710706 5.000000 0.093997
v -3.821207 -0.000001 0.246088
v -3.821207 5.000000 0.246088
v -4.000000 -0.000001 0.304181
v -4.000000 5.000000 0.304181
v -4.178793 -0.000001 0.246088
v -4.178793 5.000000 0.246088
v -4.289293 -0.000001 0.093997
v -4.289293 5.000000 0.093997
v -4.289293 -0.000001 -0.093997
v -4.289293 5.000000 -0.093997
v -4.178793 -0.000001 -0.246088
v -4.178793 5.000000 -0.246088
v 4.000000 -0.000001 -0.304181
v 4.000000 5.000000 -0.304181
v 4.178793 -0.000001 -0.246088
v 4.178793 5.000000 -0.246088
v 4.289293 -0.000001 -0.093997
v 4.289293 5.000000 -0.093997
v 4.289293 -0.000001 0.093997
v 4.289293 5.000000 0.093997
v 4.178793 -0.000001 0.246088
v 4.178793 5.000000 0.246088
v 4.000000 -0.000001 0.304181
v 4.000000 5.000000 0.304181
v 3.821207 -0.000001 0.246088
v 3.821207 5.000000 0.246088
v 3.710707 -0.000001 0.093997
v 3.710707 5.000000 0.093997
v 3.710707 -0.000001 -0.093997
v 3.710707 5.000000 -0.093997
v 3.821207 -0.000001 -0.246088
v 3.821207 5.000000 -0.246088
v -4.538166 5.461834 0.400000
v -4.538166 10.538166 0.400000
v -3.770579 8.500000 -0.700000
v -3.770579 10.500000 -0.700000
v 4.538166 5.461834 0.400000
v 4.538166 10.538166 0.400000
v 3.770579 8.500000 -0.700000
v 3.770579 10.500000 -0.700000
v -5.000000 5.000000 -0.400000
v -5.000000 11.000000 -0.400000
v 5.000000 5.000000 -0.400000
v 5.000000 11.000000 -0.400000
v -5.000000 5.000000 0.400000
v -5.000000 11.000000 0.400000
v 5.000000 11.000000 0.400000
v 5.000000 5.000000 0.400000
v -4.435969 5.589017 0.239832
v -4.435969 10.410983 0.239832
v 4.435969 10.410983 0.239832
v 4.435969 5.589017 0.239832
vn -0.0000 -0.0000 -1.0000
vn 0.5878 -0.0000 -0.8090
vn 0.9511 -0.0000 -0.3090
vn 0.9511 -0.0000 0.3090
vn 0.5878 -0.0000 0.8090
vn -0.0000 -0.0000 1.0000
vn -0.5878 -0.0000 0.8090
vn -0.9511 -0.0000 0.3090
vn -0.9511 -0.0000 -0.3090
vn -0.5878 -0.0000 -0.8090
vn -0.2371 -0.0000 -0.9715
vn 1.0000 -0.0000 -0.0000
vn -0.0000 -0.2739 0.9618
vn -0.0000 -0.7831 0.6219
vn -0.0000 -1.0000 -0.0000
vn -0.0000 1.0000 -0.0000
vn -0.0000 0.5145 -0.8575
vn -0.0000 -0.0854 -0.9963
vn 0.2371 -0.0000 -0.9715
vn -1.0000 -0.0000 -0.0000
vn 0.2756 -0.0000 0.9613
vn -0.2756 -0.0000 0.9613
vn -0.0000 0.2739 0.9618
vn -0.8430 -0.0000 0.5379
vn -0.0000 0.7831 0.6219
vn 0.8430 -0.0000 0.5379
vt 0.542374 0.484810
vt 0.864661 0.484810
vt 0.864660 0.496927
vt 0.542321 0.496931
vt 0.864652 0.509045
vt 0.542341 0.509051
vt 0.864664 0.521163
vt 0.542346 0.521172
vt 0.864678 0.533280
vt 0.542346 0.533292
vt 0.864688 0.545399
vt 0.542349 0.545411
vt 0.864691 0.557518
vt 0.542359 0.557529
vt 0.864691 0.569638
vt 0.542373 0.569647
vt 0.864696 0.581759
vt 0.542385 0.581765
vt 0.864716 0.593879
vt 0.542377 0.593883
vt 0.864663 0.605999
vt 0.542376 0.605999
vt 0.864663 0.454475
vt 0.542376 0.454475
vt 0.542377 0.442358
vt 0.864716 0.442354
vt 0.542385 0.430240
vt 0.864696 0.430234
vt 0.542373 0.418122
vt 0.864691 0.418113
vt 0.542359 0.406004
vt 0.864691 0.405993
vt 0.542349 0.393886
vt 0.864688 0.393874
vt 0.542346 0.381767
vt 0.864678 0.381756
vt 0.542346 0.369647
vt 0.864664 0.369638
vt 0.542341 0.357526
vt 0.864652 0.357520
vt 0.542321 0.345406
vt 0.864660 0.345402
vt 0.542374 0.333286
vt 0.864661 0.333286
vt 0.908022 0.038350
vt 0.907280 0.286867
vt 0.856567 0.263348
vt 0.856603 0.182059
vt 0.548459 0.263080
vt 0.548504 0.181803
vt 0.383582 0.633518
vt 0.085383 0.632863
vt 0.085486 0.593893
vt 0.384088 0.594465
vt 0.108040 0.571352
vt 0.108044 0.123093
vt 0.117284 0.130784
vt 0.117227 0.563618
vt 0.423106 0.100985
vt 0.423106 0.594191
vt 0.384099 0.101018
vt 0.046480 0.593926
vt 0.046480 0.100720
vt 0.085497 0.100446
vt 0.497722 0.286538
vt 0.497176 0.038350
vt 0.086004 0.061394
vt 0.384202 0.062048
vt 0.361545 0.123559
vt 0.361542 0.571818
vt 0.370287 0.978267
vt 0.370287 0.652113
vt 0.970378 0.652113
vt 0.970378 0.978267
vt 0.352302 0.564126
vt 0.352358 0.131293
s 1
f 1/1/1 2/2/1 4/3/2 3/4/2
f 3/4/2 4/3/2 6/5/3 5/6/3
f 5/6/3 6/5/3 8/7/4 7/8/4
f 7/8/4 8/7/4 10/9/5 9/10/5
f 9/10/5 10/9/5 12/11/6 11/12/6
f 11/12/6 12/11/6 14/13/7 13/14/7
f 13/14/7 14/13/7 16/15/8 15/16/8
f 15/16/8 16/15/8 18/17/9 17/18/9
f 17/18/9 18/17/9 20/19/10 19/20/10
f 19/20/10 20/19/10 2/21/1 1/22/1
f 21/23/1 22/24/1 24/25/2 23/26/2
f 23/26/2 24/25/2 26/27/3 25/28/3
f 25/28/3 26/27/3 28/29/4 27/30/4
f 27/30/4 28/29/4 30/31/5 29/32/5
f 29/32/5 30/31/5 32/33/6 31/34/6
f 31/34/6 32/33/6 34/35/7 33/36/7
f 33/36/7 34/35/7 36/37/8 35/38/8
f 35/38/8 36/37/8 38/39/9 37/40/9
f 37/40/9 38/39/9 40/41/10 39/42/10
f 39/42/10 40/41/10 22/43/1 21/44/1
f 49/45/11 50/46/11 44/47/11 43/48/11
f 43/48/1 44/47/1 48/49/1 47/50/1
f 51/51/12 52/52/12 55/53/12 56/54/12
f 46/55/13 42/56/13 58/57/14 59/58/14
f 49/59/15 51/60/15 56/54/15 53/61/15
f 52/62/16 50/63/16 54/64/16 55/53/16
f 48/49/17 44/47/17 50/46/17 52/65/17
f 43/48/18 47/50/18 51/66/18 49/45/18
f 47/50/19 48/49/19 52/65/19 51/66/19
f 53/61/20 54/64/20 50/67/20 49/68/20
f 41/69/21 42/56/21 54/64/6 53/61/6
f 46/55/22 45/70/22 56/54/6 55/53/6
f 45/70/23 41/69/23 53/61/6 56/54/6
f 42/56/13 46/55/13 55/53/6 54/64/6
f 60/71/6 59/72/6 58/73/6 57/74/6
f 45/70/22 46/55/22 59/58/24 60/75/24
f 41/69/23 45/70/23 60/75/25 57/76/25
f 42/56/21 41/69/21 57/76/26 58/57/26
