# Blender 4.4.3
# www.blender.org
o Cylinder.007
v 0.172841 -0.000001 -0.054399
v 0.209488 -0.000001 -0.054399
v 0.191165 0.100001 -0.040547
v 0.209488 0.078842 -0.054399
v 0.172841 0.078842 -0.054399
v 0.356079 -0.000001 0.030235
v 0.374403 -0.000001 0.061973
v 0.353245 0.100001 0.053030
v 0.374403 0.078842 0.061973
v 0.356079 0.078842 0.030235
v 0.374403 -0.000001 0.231242
v 0.356079 -0.000001 0.262980
v 0.353245 0.100001 0.240184
v 0.356079 0.078842 0.262980
v 0.374403 0.078842 0.231242
v 0.209488 -0.000001 0.347614
v 0.172841 -0.000001 0.347614
v 0.191165 0.100001 0.333761
v 0.172841 0.078842 0.347614
v 0.209488 0.078842 0.347614
v 0.026250 -0.000001 0.262980
v 0.007926 -0.000001 0.231242
v 0.029084 0.100001 0.240184
v 0.007926 0.078842 0.231242
v 0.026250 0.078842 0.262980
v 0.007926 -0.000001 0.061973
v 0.026250 -0.000001 0.030235
v 0.029084 0.100001 0.053030
v 0.026250 0.078842 0.030235
v 0.007926 0.078842 0.061973
v -0.010398 -0.000001 -0.371778
v 0.026250 -0.000001 -0.371778
v 0.007926 0.100001 -0.357926
v 0.026250 0.078842 -0.371778
v -0.010398 0.078842 -0.371778
v 0.172841 -0.000001 -0.287144
v 0.191164 -0.000001 -0.255406
v 0.170006 0.100001 -0.264349
v 0.191164 0.078842 -0.255406
v 0.172841 0.078842 -0.287144
v 0.191164 -0.000001 -0.086137
v 0.172841 -0.000001 -0.054399
v 0.170006 0.100001 -0.077195
v 0.172841 0.078842 -0.054399
v 0.191164 0.078842 -0.086137
v 0.026250 -0.000001 0.030235
v -0.010398 -0.000001 0.030235
v 0.007926 0.100001 0.016383
v -0.010398 0.078842 0.030235
v 0.026250 0.078842 0.030235
v -0.156989 -0.000001 -0.054399
v -0.175313 -0.000001 -0.086137
v -0.154154 0.100001 -0.077194
v -0.175313 0.078842 -0.086137
v -0.156989 0.078842 -0.054399
v -0.175313 -0.000001 -0.255406
v -0.156989 -0.000001 -0.287144
v -0.154154 0.100001 -0.264349
v -0.156989 0.078842 -0.287144
v -0.175313 0.078842 -0.255406
v -0.193637 -0.000001 -0.054399
v -0.156989 -0.000001 -0.054399
v -0.175313 0.100001 -0.040547
v -0.156989 0.078842 -0.054399
v -0.193637 0.078842 -0.054399
v -0.010398 -0.000001 0.030235
v 0.007926 -0.000001 0.061973
v -0.013233 0.100001 0.053030
v 0.007926 0.078842 0.061973
v -0.010398 0.078842 0.030235
v 0.007926 -0.000001 0.231242
v -0.010398 -0.000001 0.262980
v -0.013233 0.100001 0.240184
v -0.010398 0.078842 0.262980
v 0.007926 0.078842 0.231242
v -0.156989 -0.000001 0.347614
v -0.193637 -0.000001 0.347614
v -0.175313 0.100001 0.333761
v -0.193637 0.078842 0.347614
v -0.156989 0.078842 0.347614
v -0.340228 -0.000001 0.262980
v -0.358552 -0.000001 0.231242
v -0.337393 0.100001 0.240184
v -0.358552 0.078842 0.231242
v -0.340228 0.078842 0.262980
v -0.358552 -0.000001 0.061973
v -0.340228 -0.000001 0.030235
v -0.337393 0.100001 0.053030
v -0.340228 0.078842 0.030235
v -0.358552 0.078842 0.061973
vn -0.5000 -0.0000 -0.8660
vn 0.5000 -0.0000 0.8660
vn -0.5000 -0.0000 0.8660
vn -1.0000 -0.0000 -0.0000
vn 1.0000 -0.0000 -0.0000
vn 0.5000 -0.0000 -0.8660
vn -0.0000 1.0000 -0.0000
vn -0.0000 0.5478 -0.8366
vn 0.7246 0.5478 -0.4183
vn 0.7246 0.5478 0.4183
vn -0.0000 0.5478 0.8366
vn -0.7246 0.5478 0.4183
vn -0.7246 0.5478 -0.4183
vn 0.7246 0.5477 -0.4183
vn -0.7246 0.5477 0.4183
vn -0.7246 0.5477 -0.4183
vn 0.3536 0.7071 -0.6124
vn -0.0000 -0.0000 -1.0000
vn 0.8660 -0.0000 -0.5000
vn 0.7071 0.7071 -0.0000
vn 0.8660 -0.0000 0.5000
vn 0.3536 0.7071 0.6124
vn -0.0000 -0.0000 1.0000
vn -0.3536 0.7071 0.6124
vn -0.8660 -0.0000 0.5000
vn -0.7071 0.7071 -0.0000
vn -0.8660 -0.0000 -0.5000
vn -0.3536 0.7071 -0.6124
vt 0.435926 0.555212
vt 0.493415 0.588403
vt 0.493415 0.588403
vt 0.565277 0.463936
vt 0.565277 0.463936
vt 0.507787 0.430744
vt 0.493415 0.430744
vt 0.493415 0.430744
vt 0.435926 0.463935
vt 0.435926 0.463936
vt 0.428740 0.476382
vt 0.428740 0.476382
vt 0.428740 0.542765
vt 0.572463 0.542765
vt 0.572463 0.542765
vt 0.572463 0.476382
vt 0.422420 0.736265
vt 0.422420 0.736265
vt 0.479909 0.703073
vt 0.564165 0.546272
vt 0.500601 0.582970
vt 0.437038 0.546272
vt 0.437038 0.472875
vt 0.500601 0.436177
vt 0.564165 0.472875
vt 0.350558 0.703073
vt 0.408047 0.736265
vt 0.479909 0.611797
vt 0.479909 0.611797
vt 0.422420 0.578606
vt 0.422420 0.578606
vt 0.408047 0.578606
vt 0.408047 0.578606
vt 0.350558 0.611797
vt 0.350558 0.611797
vt 0.343372 0.624244
vt 0.343372 0.690626
vt 0.343372 0.690626
vt 0.487095 0.690626
vt 0.487095 0.624244
vt 0.487095 0.624244
vt 0.337052 0.588403
vt 0.337052 0.588403
vt 0.394541 0.555212
vt 0.478797 0.694133
vt 0.415233 0.730832
vt 0.351670 0.694134
vt 0.351670 0.620737
vt 0.415234 0.584038
vt 0.478797 0.620737
vt 0.265190 0.555212
vt 0.322679 0.588403
vt 0.322679 0.588403
vt 0.394541 0.463935
vt 0.394541 0.463935
vt 0.337052 0.430744
vt 0.337052 0.430744
vt 0.322679 0.430744
vt 0.322679 0.430744
vt 0.265190 0.463936
vt 0.258004 0.476382
vt 0.258004 0.476382
vt 0.258004 0.542765
vt 0.401727 0.542765
vt 0.401727 0.542765
vt 0.401727 0.476382
vt 0.401727 0.476382
vt 0.393429 0.546272
vt 0.329865 0.582970
vt 0.266302 0.546272
vt 0.266302 0.472875
vt 0.329866 0.436177
vt 0.393429 0.472875
vt 0.507787 0.588403
vt 0.565277 0.555212
vt 0.507787 0.588403
vt 0.565277 0.555212
s 0
f 27/1/1 29/1/1 5/2/1 1/3/1
f 12/4/2 14/5/2 20/6/2 16/6/2
f 17/7/3 19/8/3 25/9/3 21/10/3
f 22/11/4 24/12/4 30/13/4 26/13/4
f 7/14/5 9/15/5 15/16/5 11/16/5
f 32/17/6 34/18/6 40/19/6 36/19/6
f 8/20/7 3/21/7 28/22/7 23/23/7 18/24/7 13/25/7
f 57/26/1 59/26/1 35/27/1 31/27/1
f 42/28/2 44/29/2 50/30/2 46/31/2
f 47/32/3 49/33/3 55/34/3 51/35/3
f 52/36/4 54/36/4 60/37/4 56/38/4
f 37/39/5 39/39/5 45/40/5 41/41/5
f 62/42/6 64/43/6 70/44/6 66/44/6
f 38/45/7 33/46/7 58/47/7 53/48/7 48/49/7 43/50/7
f 87/51/1 89/51/1 65/52/1 61/53/1
f 72/54/2 74/55/2 80/56/2 76/57/2
f 77/58/3 79/59/3 85/60/3 81/60/3
f 82/61/4 84/62/4 90/63/4 86/63/4
f 67/64/5 69/65/5 75/66/5 71/67/5
f 68/68/7 63/69/7 88/70/7 83/71/7 78/72/7 73/73/7
f 3/21/8 4/74/8 5/2/8
f 8/20/9 9/15/9 10/75/9
f 13/25/10 14/5/10 15/16/10
f 18/24/11 19/8/11 20/6/11
f 23/23/12 24/12/12 25/9/12
f 28/22/13 29/1/13 30/13/13
f 33/46/8 34/18/8 35/27/8
f 38/45/14 39/39/14 40/19/14
f 43/50/10 44/29/10 45/40/10
f 48/49/11 49/33/11 50/30/11
f 53/48/15 54/36/15 55/34/15
f 58/47/16 59/26/16 60/37/16
f 63/69/8 64/43/8 65/52/8
f 68/68/9 69/65/9 70/44/9
f 73/73/10 74/55/10 75/66/10
f 78/72/11 79/59/11 80/56/11
f 83/71/15 84/62/15 85/60/15
f 88/70/16 89/51/16 90/63/16
f 10/75/17 4/74/17 3/21/17 8/20/17
f 1/3/18 5/2/18 4/74/18 2/76/18
f 9/15/19 7/14/19 6/77/19 10/75/19
f 15/16/20 9/15/20 8/20/20 13/25/20
f 14/5/21 12/4/21 11/16/21 15/16/21
f 20/6/22 14/5/22 13/25/22 18/24/22
f 19/8/23 17/7/23 16/6/23 20/6/23
f 25/9/24 19/8/24 18/24/24 23/23/24
f 24/12/25 22/11/25 21/10/25 25/9/25
f 30/13/26 24/12/26 23/23/26 28/22/26
f 29/1/27 27/1/27 26/13/27 30/13/27
f 5/2/28 29/1/28 28/22/28 3/21/28
f 40/19/17 34/18/17 33/46/17 38/45/17
f 31/27/18 35/27/18 34/18/18 32/17/18
f 39/39/19 37/39/19 36/19/19 40/19/19
f 45/40/20 39/39/20 38/45/20 43/50/20
f 44/29/21 42/28/21 41/41/21 45/40/21
f 50/30/22 44/29/22 43/50/22 48/49/22
f 49/33/23 47/32/23 46/31/23 50/30/23
f 55/34/24 49/33/24 48/49/24 53/48/24
f 54/36/25 52/36/25 51/35/25 55/34/25
f 60/37/26 54/36/26 53/48/26 58/47/26
f 59/26/27 57/26/27 56/38/27 60/37/27
f 35/27/28 59/26/28 58/47/28 33/46/28
f 70/44/17 64/43/17 63/69/17 68/68/17
f 61/53/18 65/52/18 64/43/18 62/42/18
f 69/65/19 67/64/19 66/44/19 70/44/19
f 75/66/20 69/65/20 68/68/20 73/73/20
f 74/55/21 72/54/21 71/67/21 75/66/21
f 80/56/22 74/55/22 73/73/22 78/72/22
f 79/59/23 77/58/23 76/57/23 80/56/23
f 85/60/24 79/59/24 78/72/24 83/71/24
f 84/62/25 82/61/25 81/60/25 85/60/25
f 90/63/26 84/62/26 83/71/26 88/70/26
f 89/51/27 87/51/27 86/63/27 90/63/27
f 65/52/28 89/51/28 88/70/28 63/69/28
f 2/76/6 4/74/6 10/75/6 6/77/6
