# Blender 4.4.3
# www.blender.org
o Xlogo
v 0.416216 -1.045562 0.119841
v -1.018984 1.043663 0.119841
v 0.416216 -1.045562 -0.119841
v -1.018984 1.043663 -0.119841
v 1.018984 -1.045562 0.119841
v -0.416216 1.043663 0.119841
v 1.018984 -1.045562 -0.119841
v -0.416216 1.043663 -0.119841
v 0.588706 -1.045562 -0.119841
v -0.846494 1.043663 -0.119841
v 0.588706 -1.045562 0.119841
v -0.846494 1.043663 0.119841
v -0.570965 1.043663 -0.119841
v 0.864235 -1.045562 0.119841
v 0.864235 -1.045562 -0.119841
v -0.570965 1.043663 0.119841
v 0.327059 -0.915776 0.119841
v 0.327059 -0.915776 -0.119841
v 0.929827 -0.915776 -0.119841
v 0.929827 -0.915776 0.119841
v 0.499549 -0.915776 0.119841
v 0.499549 -0.915776 -0.119841
v 0.775078 -0.915776 0.119841
v 0.775078 -0.915776 -0.119841
v -0.928701 0.912238 0.119841
v -0.928701 0.912238 -0.119841
v -0.325933 0.912238 -0.119841
v -0.325933 0.912238 0.119841
v -0.756211 0.912238 0.119841
v -0.756211 0.912238 -0.119841
v -0.480682 0.912238 0.119841
v -0.480682 0.912238 -0.119841
v -1.015721 -1.040056 0.063302
v 0.773533 1.050118 0.063302
v -1.015721 -1.040056 -0.063302
v 0.773533 1.050118 -0.063302
v -0.835991 -1.040056 0.063302
v 0.953264 1.050118 0.063302
v -0.835991 -1.040056 -0.063302
v 0.953264 1.050118 -0.063302
v -0.179606 -0.063322 0.063302
v -0.179606 -0.063322 -0.063302
v -0.097482 -0.177344 -0.063302
v -0.097482 -0.177344 0.063302
v 0.069182 0.227308 0.063302
v 0.069182 0.227308 -0.063302
v 0.149026 0.110622 -0.063302
v 0.149026 0.110622 0.063302
vn -0.8243 -0.5662 -0.0000
vn -0.0000 -0.0000 -1.0000
vn 0.8243 0.5662 -0.0000
vn -0.0000 -0.0000 1.0000
vn -0.0000 -1.0000 -0.0000
vn -0.0000 1.0000 -0.0000
vn -0.7597 0.6503 -0.0000
vn 0.7597 -0.6503 -0.0000
vt 0.751657 0.919992
vt 0.751657 0.943702
vt 0.716016 0.943702
vt 0.716016 0.919992
vt 0.081629 0.800495
vt 0.081629 0.849972
vt 0.042049 0.822783
vt 0.042049 0.773305
vt 0.716016 0.123949
vt 0.716016 0.100239
vt 0.751657 0.100239
vt 0.751657 0.123949
vt 0.307776 0.848906
vt 0.307776 0.898383
vt 0.263658 0.928690
vt 0.263658 0.879213
vt 0.716016 0.500165
vt 0.716016 0.477154
vt 0.751657 0.477154
vt 0.751657 0.500165
vt 0.716016 0.969352
vt 0.751657 0.969352
vt 0.716016 0.077227
vt 0.716016 0.036255
vt 0.751657 0.036255
vt 0.751657 0.077227
vt 0.716016 0.566787
vt 0.716016 0.541137
vt 0.751657 0.541137
vt 0.751657 0.566787
vt 0.378248 0.800495
vt 0.378248 0.849973
vt 0.307776 0.898383
vt 0.307776 0.848906
vt 0.196218 0.879213
vt 0.196217 0.928691
vt 0.152100 0.898384
vt 0.152100 0.848906
vt 0.417828 0.773305
vt 0.417828 0.822783
vt 0.152101 0.848906
vt 0.152101 0.898383
vt 0.152101 0.111856
vt 0.152101 0.160716
vt 0.081629 0.112305
vt 0.081629 0.063445
vt 0.417828 0.036255
vt 0.417828 0.085116
vt 0.378248 0.112305
vt 0.378248 0.063445
vt 0.196218 0.142163
vt 0.196218 0.191023
vt 0.307776 0.160716
vt 0.307776 0.111856
vt 0.263658 0.191023
vt 0.263658 0.142163
vt 0.716016 0.453739
vt 0.751657 0.453739
vt 0.042049 0.085116
vt 0.042049 0.036255
vt 0.751657 0.590202
vt 0.716016 0.590202
vt 0.819097 0.407017
vt 0.854738 0.407017
vt 0.854738 0.736808
vt 0.819097 0.736808
vt 0.854738 0.777779
vt 0.819097 0.777779
vt 0.819097 0.366046
vt 0.819097 0.036255
vt 0.854738 0.036255
vt 0.854738 0.366046
vt 0.648576 0.514058
vt 0.648576 0.850152
vt 0.609290 0.850152
vt 0.609290 0.514058
vt 0.566922 0.886420
vt 0.566922 0.502663
vt 0.527636 0.886420
vt 0.527636 0.502663
vt 0.485268 0.850152
vt 0.485268 0.514058
vt 0.925823 0.092027
vt 0.925823 0.036255
vt 0.965109 0.036255
vt 0.965109 0.092027
vt 0.819097 0.900991
vt 0.819097 0.845219
vt 0.858383 0.845219
vt 0.858383 0.900991
vt 0.527636 0.072524
vt 0.527636 0.424917
vt 0.485268 0.435223
vt 0.485268 0.036255
vt 0.566922 0.072524
vt 0.566922 0.424917
vt 0.609290 0.036255
vt 0.609290 0.435223
vt 0.648576 0.036255
vt 0.648576 0.435223
s 0
f 25/1/1 2/2/1 4/3/1 26/4/1
f 32/5/2 13/6/2 8/7/2 27/8/2
f 27/9/3 8/10/3 6/11/3 28/12/3
f 29/13/4 12/14/4 2/15/4 25/16/4
f 15/17/5 7/18/5 5/19/5 14/20/5
f 10/21/6 4/3/6 2/2/6 12/22/6
f 13/23/6 10/24/6 12/25/6 16/26/6
f 3/27/5 9/28/5 11/29/5 1/30/5
f 31/31/4 16/32/4 12/33/4 29/34/4
f 26/35/2 4/36/2 10/37/2 30/38/2
f 28/39/4 6/40/4 16/32/4 31/31/4
f 8/10/6 13/23/6 16/26/6 6/11/6
f 9/28/5 15/17/5 14/20/5 11/29/5
f 30/41/2 10/42/2 13/6/2 32/5/2
f 9/43/2 22/44/2 24/45/2 15/46/2
f 5/47/4 20/48/4 23/49/4 14/50/4
f 3/51/2 18/52/2 22/44/2 9/43/2
f 14/50/4 23/49/4 21/53/4 11/54/4
f 11/54/4 21/53/4 17/55/4 1/56/4
f 7/18/3 19/57/3 20/58/3 5/19/3
f 15/46/2 24/45/2 19/59/2 7/60/2
f 1/30/1 17/61/1 18/62/1 3/27/1
f 20/48/4 28/39/4 31/31/4 23/49/4
f 18/52/2 26/35/2 30/38/2 22/44/2
f 21/53/4 29/13/4 25/16/4 17/55/4
f 19/57/3 27/9/3 28/12/3 20/58/3
f 24/45/2 32/5/2 27/8/2 19/59/2
f 17/61/1 25/1/1 26/4/1 18/62/1
f 21/63/3 22/64/3 30/65/3 29/66/3
f 30/65/5 32/67/5 31/68/5 29/66/5
f 23/69/1 31/70/1 32/71/1 24/72/1
f 22/64/6 21/63/6 23/69/6 24/72/6
f 45/73/7 34/74/7 36/75/7 46/76/7
f 46/76/2 36/75/2 40/77/2 47/78/2
f 47/78/8 40/77/8 38/79/8 48/80/8
f 48/80/4 38/79/4 34/81/4 45/82/4
f 35/83/5 39/84/5 37/85/5 33/86/5
f 40/87/6 36/88/6 34/89/6 38/90/6
f 37/91/4 44/92/4 41/93/4 33/94/4
f 39/95/8 43/96/8 44/92/8 37/91/8
f 35/97/2 42/98/2 43/96/2 39/95/2
f 33/99/7 41/100/7 42/98/7 35/97/7
